<svg xmlns="http://www.w3.org/2000/svg" viewBox="0 0 900 420"><rect width="900" height="420" fill="#f4f1eb"/><rect width="130" height="420" fill="#e6e0d6"/><rect x="18" y="22" width="94" height="12" rx="4" fill="#283b43"/><rect x="18" y="58" width="94" height="8" rx="4" fill="#a9b5b4"/><rect x="18" y="86" width="94" height="58" rx="6" fill="#fff" stroke="#c4c0b8"/><rect x="18" y="154" width="94" height="58" rx="6" fill="#fff" stroke="#c4c0b8"/><rect x="18" y="222" width="94" height="58" rx="6" fill="#fff" stroke="#c4c0b8"/><rect x="158" y="25" width="680" height="34" rx="6" fill="#fff"/><rect x="158" y="88" width="300" height="24" rx="4" fill="#263b43"/><rect x="158" y="128" width="500" height="12" rx="4" fill="#a8b2b0"/><rect x="158" y="165" width="680" height="210" rx="8" fill="#dbe2e0"/><path d="M205 325 L350 185 L490 300 L620 220 L790 350" fill="none" stroke="#fff" stroke-width="14"/><circle cx="280" cy="235" r="28" fill="#d9b37c"/><rect x="180" y="390" width="120" height="10" rx="5" fill="#283b43"/><rect x="320" y="390" width="160" height="10" rx="5" fill="#b4bfbd"/></svg>
